<?xml version="1.0" standalone="no"?>
<!DOCTYPE svg PUBLIC "-//W3C//DTD SVG 20010904//EN"
 "http://www.w3.org/TR/2001/REC-SVG-20010904/DTD/svg10.dtd">
<svg version="1.0" xmlns="http://www.w3.org/2000/svg"
 width="180.000000pt" height="180.000000pt" viewBox="0 0 180.000000 180.000000"
 preserveAspectRatio="xMidYMid meet">
<metadata>
Created by potrace 1.11, written by Peter Selinger 2001-2013
</metadata>
<g transform="translate(0.000000,180.000000) scale(0.100000,-0.100000)"
fill="#000000" stroke="none">
<path d="M518 1530 c-51 -15 -108 -54 -132 -89 -95 -139 -117 -619 -36 -786
23 -47 113 -140 180 -186 73 -50 235 -126 341 -161 92 -30 102 -31 146 -20 27
7 86 35 132 63 46 27 88 46 92 42 4 -4 17 -33 29 -63 12 -30 26 -61 32 -67 16
-19 46 -16 57 6 9 15 3 34 -26 90 -29 56 -35 75 -27 89 6 9 46 36 89 59 110
57 115 65 115 177 0 233 -113 614 -200 676 -84 60 -300 135 -474 165 -93 16
-273 19 -318 5z m350 -336 c13 -9 33 -36 44 -61 17 -39 19 -52 9 -83 -20 -67
-85 -89 -148 -50 -45 27 -66 64 -66 116 0 88 83 129 161 78z m360 -207 c28
-28 36 -45 39 -84 5 -42 2 -54 -20 -79 -21 -24 -33 -29 -71 -29 -39 0 -51 5
-82 37 -30 30 -38 45 -42 87 -4 46 -2 53 27 82 28 28 37 31 73 26 29 -4 51
-16 76 -40z m-357 -172 c64 -34 91 -135 49 -188 -74 -94 -237 29 -190 144 24
57 81 75 141 44z"/>
</g>
</svg>
